<svg width="32" height="32" viewBox="0 0 32 32" fill="none" xmlns="http://www.w3.org/2000/svg">
<path fill-rule="evenodd" clip-rule="evenodd" d="M18.6887 1.57377H7.14754C6.27837 1.57377 5.57377 2.27837 5.57377 3.14754V28.8525C5.57377 29.7216 6.27837 30.4262 7.14754 30.4262H25.5082C26.3774 30.4262 27.082 29.7216 27.082 28.8525V10.2296H22.0985C20.2153 10.2296 18.6887 8.70297 18.6887 6.81977V1.57377ZM27.082 8.65584V8.65574L20.2625 1.57395V6.81977C20.2625 7.8338 21.0845 8.65584 22.0985 8.65584H27.082ZM4 3.14754C4 1.4092 5.4092 0 7.14754 0H20.7869L28.6557 8.13115V28.8525C28.6557 30.5908 27.2465 32 25.5082 32H7.14754C5.4092 32 4 30.5908 4 28.8525V3.14754Z" fill="#31465A"/>
<path d="M4 14H23C24.1046 14 25 14.8954 25 16V24C25 25.1046 24.1046 26 23 26H4V14Z" fill="#CF000F"/>
<path d="M9.0876 23V20.9296H10.3101C10.875 20.9296 11.3302 20.7437 11.6843 20.3803C12.0384 20.0085 12.2155 19.5352 12.2155 18.9521C12.2155 18.369 12.0384 17.9042 11.6843 17.5408C11.3302 17.1775 10.875 17 10.3101 17H8V23H9.0876ZM9.0876 17.938H10.1246C10.7316 17.938 11.111 18.3352 11.111 18.9521C11.111 19.5859 10.7401 19.9831 10.1077 19.9831H9.0876V17.938Z" fill="white"/>
<path d="M14.8058 23C15.7416 23 16.4836 22.7296 17.0316 22.1972C17.5796 21.6648 17.8578 20.9296 17.8578 19.9915C17.8578 19.0535 17.5796 18.3268 17.0316 17.7944C16.4836 17.262 15.7416 17 14.8058 17H12.7655V23H14.8058ZM13.8531 17.938H14.7468C15.9693 17.938 16.7365 18.6817 16.7365 19.9915C16.7365 21.3183 15.9861 22.062 14.7468 22.062H13.8531V17.938Z" fill="white"/>
<path d="M19.6478 23V20.5746H21.629V19.6366H19.6478V17.938H22V17H18.5602V23H19.6478Z" fill="white"/>
</svg>
