<svg width="56" height="18" viewBox="0 0 56 18" fill="none" xmlns="http://www.w3.org/2000/svg">
<path d="M39.8388 1.59492C38.6158 1.15283 37.3245 0.929911 36.0241 0.936418C31.8251 0.936418 28.8577 3.05808 28.8396 6.09443C28.8051 8.32612 30.9432 9.58402 32.5591 10.3361C34.2193 11.1063 34.7744 11.5858 34.7662 12.2689C34.7579 13.3216 33.4393 13.7912 32.2257 13.7912C30.5392 13.7912 29.6246 13.5613 28.214 12.9701L27.6901 12.7222L27.0924 16.2298C28.1187 16.6486 29.9579 17.0164 31.8563 17.0509C36.3295 17.0509 39.246 14.9473 39.2788 11.704C39.3133 9.92558 38.1687 8.57573 35.7301 7.46235C34.2587 6.74473 33.3375 6.25536 33.3375 5.51968C33.3375 4.86938 34.1241 4.18625 35.7662 4.18625C36.856 4.15895 37.9395 4.35975 38.9471 4.77578L39.3494 4.95478L39.939 1.57686L39.8388 1.59492ZM50.7542 1.22708H47.4699C46.4435 1.22708 45.6816 1.50132 45.2283 2.51946L38.9159 16.8276H43.3809L44.2808 14.4842L49.7279 14.4924C49.8642 15.0393 50.2484 16.8259 50.2484 16.8259H54.1912L50.7542 1.22708ZM22.7932 1.09899H27.0447L24.3844 16.706H20.1329L22.7932 1.09078V1.09899ZM11.9829 9.69404L12.418 11.8666L16.5826 1.22708H21.0903L14.3837 16.8013H9.89569L6.21726 3.61313C6.18908 3.50358 6.13887 3.40093 6.0697 3.31142C6.00052 3.22192 5.91384 3.14746 5.81493 3.09257C4.49363 2.40534 3.09195 1.88516 1.64221 1.54402L1.69312 1.21723H8.55241C9.47694 1.25171 10.2291 1.54402 10.4852 2.53588L11.9829 9.70225V9.69404ZM45.4927 11.2935L47.1956 6.92372C47.1694 6.96478 47.5454 6.02546 47.7589 5.43429L48.0496 6.77593L49.0349 11.2836H45.4927V11.2935Z" fill="#303030"/>
</svg>
