<svg width="26" height="17" viewBox="0 0 26 17" fill="none" xmlns="http://www.w3.org/2000/svg">
<g clip-path="url(#clip0_118_10122)">
<path d="M16.9409 16.4427C15.3391 16.4429 13.7733 15.9773 12.4414 15.1047C11.1094 14.2322 10.0712 12.9918 9.45805 11.5406C8.84488 10.0893 8.68426 8.4923 8.99651 6.95151C9.30875 5.41072 10.0798 3.99534 11.2123 2.88435C12.3447 1.77337 13.7876 1.01668 15.3585 0.709981C16.9294 0.403278 18.5578 0.560334 20.0377 1.16129C21.5176 1.76224 22.7826 2.7801 23.6727 4.08616C24.5627 5.39221 25.0379 6.9278 25.0382 8.49873V8.49991C25.0359 10.6056 24.1821 12.6244 22.6641 14.1135C21.1461 15.6025 19.0878 16.4402 16.9409 16.4427Z" fill="#8A8A8A"/>
<path d="M9.06147 16.4427C7.45974 16.4427 5.89397 15.9769 4.56218 15.1041C3.23038 14.2313 2.19238 12.9908 1.57942 11.5395C0.966461 10.0881 0.806083 8.4911 1.11857 6.95035C1.43105 5.4096 2.20236 3.99434 3.33496 2.88352C4.46755 1.7727 5.91057 1.01622 7.48153 0.709751C9.05249 0.403277 10.6808 0.560571 12.1606 1.16174C13.6405 1.76291 14.9053 2.78096 15.7951 4.08714C16.685 5.39332 17.16 6.92898 17.16 8.49991C17.1578 10.6058 16.3038 12.6248 14.7855 14.1139C13.2672 15.603 11.2086 16.4405 9.06147 16.4427Z" fill="#303030"/>
</g>
<defs>
<clipPath id="clip0_118_10122">
<rect width="26" height="17" fill="white"/>
</clipPath>
</defs>
</svg>
