<svg width="87" height="21" viewBox="0 0 87 21" fill="none" xmlns="http://www.w3.org/2000/svg">
<g clip-path="url(#clip0_118_10243)">
<path fill-rule="evenodd" clip-rule="evenodd" d="M85.07 18.9821C85.1728 18.9821 85.2757 18.9821 85.382 18.9821V19.7906C85.4958 19.8052 85.611 19.8052 85.7248 19.7906C85.9922 19.5371 86.239 19.2631 86.503 19.0095C86.6454 18.9941 86.7891 18.9941 86.9315 19.0095C86.6195 19.335 86.3007 19.657 85.9819 19.9756C86.287 20.3182 86.6127 20.6128 86.9212 20.9383C86.7785 20.9486 86.6353 20.9486 86.4927 20.9383C86.2219 20.6813 85.9716 20.4073 85.7042 20.1469H85.3922C85.3922 20.4175 85.3922 20.6882 85.3922 20.9588H85.0837C85.0837 20.3148 85.0837 19.6707 85.0837 19.0267L85.07 18.9821ZM82.8897 18.9821H83.2016V19.7872H84.3295C84.3295 19.52 84.3295 19.2528 84.3295 18.9821H84.6449C84.6449 19.6228 84.6449 20.26 84.6449 20.9006H84.3261V20.1058H83.1982V20.904H82.8828C82.8828 20.2634 82.8828 19.6262 82.8828 18.9856L82.8897 18.9821ZM81.6384 19.3795C81.5218 19.6502 81.4019 19.9174 81.2956 20.1846H82.0121C81.8921 19.9174 81.7755 19.6502 81.6487 19.383L81.6384 19.3795ZM81.4704 18.9821H81.8132C82.0943 19.6262 82.3823 20.2668 82.6634 20.9109H82.3206C82.2555 20.7738 82.1938 20.6334 82.1286 20.4929H81.1345L80.9493 20.9109H80.6065C80.8876 20.2668 81.1733 19.6239 81.4636 18.9821H81.4704ZM79.1324 20.1058C79.1324 20.2702 79.1324 20.4484 79.1324 20.6025H79.8009C79.9106 20.6025 80.0477 20.6025 80.1437 20.5203C80.1721 20.487 80.1912 20.4468 80.1991 20.4038C80.2071 20.3607 80.2036 20.3164 80.189 20.2751C80.1745 20.2339 80.1493 20.1971 80.1161 20.1686C80.0829 20.1401 80.0427 20.1208 79.9997 20.1126C79.7152 20.1126 79.4307 20.1126 79.1461 20.1126L79.1324 20.1058ZM78.817 18.9856H80.3186V19.3007H79.1324V19.7906C79.4032 19.7906 79.6775 19.7906 79.9517 19.7906C80.0738 19.7934 80.1917 19.8358 80.2875 19.9114C80.3834 19.987 80.452 20.0917 80.4829 20.2098C80.5139 20.3278 80.5056 20.4527 80.4592 20.5656C80.4129 20.6785 80.331 20.7732 80.226 20.8355C80.1205 20.8911 80.0024 20.9183 79.8832 20.9143H78.8239C78.8239 20.2702 78.8239 19.6262 78.8239 18.9821L78.817 18.9856ZM76.3213 18.9856C76.4264 18.9856 76.5327 18.9856 76.6401 18.9856C76.8938 19.2973 77.1578 19.6022 77.4115 19.9105C77.6789 19.6091 77.9291 19.2973 78.1862 18.9856C78.2925 18.9856 78.3954 18.9856 78.5016 18.9856C78.5016 19.6296 78.5016 20.2737 78.5016 20.9177H78.1862V19.5234C77.9257 19.8215 77.672 20.1264 77.4149 20.4278C77.1475 20.1298 76.9041 19.8112 76.6333 19.5166C76.6333 19.9825 76.6333 20.4484 76.6333 20.9143H76.3179C76.3179 20.2702 76.3179 19.6262 76.3179 18.9821L76.3213 18.9856ZM72.0772 18.9856C72.1801 18.9856 72.2829 18.9856 72.3892 18.9856C72.3892 19.2528 72.3892 19.5234 72.3892 19.7941C72.5032 19.8052 72.618 19.8052 72.732 19.7941C73.0028 19.5337 73.26 19.2562 73.5274 18.9924H73.9422C73.6336 19.335 73.308 19.6365 72.996 19.9688C73.3114 20.2839 73.6233 20.5991 73.9319 20.9211H73.5171C73.2737 20.6779 73.0337 20.4312 72.7937 20.188C72.7012 20.0647 72.5332 20.1332 72.4029 20.1161V20.9246H72.091C72.091 20.2771 72.091 19.633 72.091 18.989L72.0772 18.9856ZM70.3632 20.6025H71.1654C71.2156 20.6054 71.2655 20.5928 71.3084 20.5664C71.3513 20.5401 71.3851 20.5013 71.4053 20.4552C71.4199 20.4193 71.4259 20.3805 71.4229 20.3419C71.4199 20.3033 71.4079 20.2659 71.388 20.2327C71.368 20.1995 71.3406 20.1713 71.3079 20.1505C71.2753 20.1297 71.2382 20.1167 71.1996 20.1126C70.9219 20.1126 70.6443 20.1126 70.3666 20.1126C70.3666 20.2771 70.3666 20.4552 70.3666 20.606L70.3632 20.6025ZM70.3632 19.3076C70.3632 19.472 70.3632 19.633 70.3632 19.7975H71.1585C71.2039 19.8023 71.2498 19.7939 71.2906 19.7732C71.3314 19.7525 71.3652 19.7205 71.3882 19.681C71.4091 19.6451 71.4207 19.6044 71.4217 19.5629C71.4227 19.5213 71.4132 19.4801 71.3941 19.4432C71.3749 19.4063 71.3467 19.3748 71.3121 19.3517C71.2775 19.3286 71.2377 19.3146 71.1962 19.311C70.9151 19.311 70.6374 19.311 70.3597 19.311L70.3632 19.3076ZM70.0546 18.989H71.1619C71.2701 18.9871 71.3766 19.0161 71.4689 19.0725C71.5612 19.1289 71.6354 19.2105 71.683 19.3076C71.7325 19.4142 71.7483 19.5333 71.728 19.6491C71.7078 19.7648 71.6526 19.8716 71.5699 19.9551C71.6504 20.0341 71.7053 20.1354 71.7274 20.246C71.7495 20.3566 71.7378 20.4713 71.6938 20.5751C71.6498 20.679 71.5755 20.7672 71.4807 20.8283C71.3858 20.8894 71.2747 20.9205 71.1619 20.9177H70.0512C70.0512 20.2737 70.0512 19.633 70.0512 18.989H70.0546ZM74.7341 19.2939C74.6104 19.3374 74.5011 19.4141 74.4183 19.5157C74.3354 19.6172 74.2822 19.7396 74.2644 19.8694C74.245 19.9946 74.2607 20.1227 74.3098 20.2395C74.3589 20.3563 74.4394 20.4572 74.5424 20.531C74.6454 20.6048 74.7668 20.6487 74.8933 20.6577C75.0197 20.6667 75.1461 20.6405 75.2586 20.582C75.3642 20.5336 75.4558 20.4592 75.5248 20.3657C75.5938 20.2722 75.6378 20.1627 75.6528 20.0476C75.6701 19.9273 75.6551 19.8046 75.6094 19.692C75.5636 19.5794 75.4887 19.481 75.3923 19.4069C75.3003 19.3356 75.1921 19.2879 75.0773 19.2682C74.9625 19.2485 74.8446 19.2573 74.7341 19.2939ZM74.7718 18.9239C74.5679 18.9619 74.38 19.0596 74.2318 19.2046C74.0837 19.3497 73.982 19.5354 73.9398 19.7383C73.8976 19.9412 73.9167 20.1521 73.9947 20.3441C74.0727 20.5361 74.2061 20.7006 74.3779 20.8167C74.5497 20.9327 74.7522 20.9951 74.9595 20.9959C75.1669 20.9967 75.3698 20.9358 75.5425 20.8211C75.7152 20.7063 75.8498 20.5428 75.9293 20.3514C76.0088 20.16 76.0295 19.9493 75.9888 19.7461C75.9332 19.4776 75.7749 19.2413 75.5476 19.0877C75.3202 18.9341 75.0419 18.8754 74.7718 18.9239ZM68.5359 19.2665C68.4042 19.3038 68.2859 19.3782 68.1953 19.4809C68.1047 19.5835 68.0457 19.7101 68.0252 19.8454C68.0045 19.9776 68.0231 20.1129 68.0785 20.2347C68.134 20.3564 68.2239 20.4593 68.3371 20.5306C68.4535 20.6078 68.59 20.649 68.7296 20.649C68.8693 20.649 69.0058 20.6078 69.1222 20.5306C69.2304 20.4557 69.3148 20.3513 69.3652 20.2298C69.4157 20.1083 69.4301 19.9749 69.4067 19.8454C69.3875 19.7515 69.3493 19.6624 69.2944 19.5837C69.2396 19.505 69.1693 19.4383 69.0878 19.3876C69.0063 19.337 68.9154 19.3035 68.8205 19.2891C68.7256 19.2748 68.6288 19.2799 68.5359 19.3042V19.2665ZM68.5359 18.9239C68.7839 18.8858 69.0372 18.9395 69.2483 19.0749C69.4593 19.2104 69.6136 19.4183 69.682 19.6595C69.7504 19.9006 69.7282 20.1585 69.6196 20.3844C69.5111 20.6104 69.3236 20.789 69.0925 20.8865C68.8614 20.984 68.6026 20.9937 68.3649 20.9139C68.1271 20.834 67.9267 20.6701 67.8014 20.4529C67.6762 20.2357 67.6347 19.9803 67.6847 19.7346C67.7347 19.489 67.8729 19.2701 68.0731 19.1192C68.2089 19.0169 68.3679 18.9498 68.5359 18.9239ZM65.7866 19.7632C65.8217 19.5789 65.9054 19.4073 66.029 19.2661C66.1527 19.1248 66.3117 19.0191 66.4899 18.9598C66.668 18.9004 66.8587 18.8896 67.0424 18.9285C67.2261 18.9674 67.3961 19.0545 67.5349 19.1808L67.2847 19.4241C67.1766 19.3349 67.0462 19.2769 66.9076 19.2562C66.7615 19.2387 66.6135 19.2673 66.4845 19.3379C66.3554 19.4086 66.2516 19.5177 66.1877 19.6502C66.119 19.7924 66.1017 19.954 66.1385 20.1076C66.1754 20.2611 66.2642 20.3973 66.3899 20.4929C66.5163 20.5913 66.6719 20.6447 66.8321 20.6447C66.9923 20.6447 67.148 20.5913 67.2744 20.4929L67.5178 20.7464C67.378 20.8652 67.2101 20.9464 67.0302 20.9823C66.8503 21.0183 66.6641 21.0079 66.4893 20.952C66.2487 20.8733 66.0447 20.7103 65.9149 20.4931C65.7851 20.2759 65.7383 20.0191 65.7831 19.7701L65.7866 19.7632ZM58.7554 9.36258C58.7554 10.2293 58.7554 11.096 58.7554 11.9627C60.5415 11.9627 62.331 11.9627 64.117 11.9627C64.4603 11.9364 64.7794 11.776 65.0052 11.5164C65.2311 11.2567 65.3455 10.9186 65.3238 10.5753C65.2842 10.2745 65.1368 9.99817 64.909 9.79765C64.6352 9.52626 64.2661 9.37258 63.8805 9.36942L58.7554 9.36258ZM58.7554 4.0492V6.64593H63.0577C63.3899 6.65171 63.7136 6.54145 63.9731 6.33418C64.1508 6.19253 64.2876 6.00621 64.3695 5.79431C64.4514 5.58242 64.4755 5.35257 64.4393 5.12831C64.3756 4.85485 64.2317 4.60664 64.0258 4.41557C63.8199 4.2245 63.5616 4.0993 63.284 4.05604C62.9412 4.03549 62.5641 4.05604 62.2076 4.05604L58.7554 4.0492ZM54.6999 0.126679C57.4424 0.126679 60.1849 0.126679 62.9515 0.126679C63.2943 0.126679 63.6371 0.126681 63.9799 0.150662C65.2694 0.266761 66.4625 0.881358 67.3052 1.86355C67.7105 2.33604 68.015 2.88627 68.2 3.48052C68.4018 4.1525 68.4548 4.86033 68.3554 5.55485C68.2559 6.24937 68.0064 6.91393 67.6241 7.50237C68.0436 7.83467 68.414 8.22449 68.7245 8.66029C69.1274 9.2762 69.3731 9.98144 69.44 10.7142C69.507 11.4471 69.3931 12.1851 69.1085 12.8637C68.6663 13.9721 67.8266 14.8759 66.7533 15.3988C66.0811 15.7144 65.3465 15.8748 64.6038 15.8681H54.693V0.109554L54.6999 0.126679ZM0.003479 0.126679H4.11728V1.79161C4.10637 2.10035 4.11783 2.40947 4.15156 2.71656C4.2771 3.65248 4.73887 4.51086 5.45083 5.13174C6.00521 5.61226 6.68477 5.92552 7.4104 6.03507C8.13603 6.14463 8.87787 6.04596 9.54956 5.75055C10.2212 5.45514 10.7952 4.97515 11.2045 4.36645C11.6138 3.75776 11.8416 3.04541 11.8615 2.31233C11.8615 1.58263 11.8615 0.852943 11.8615 0.126679H15.9753V1.83957C15.9747 3.24732 15.6022 4.62997 14.8954 5.84773C14.4092 6.67262 13.78 7.40456 13.0374 8.00939C14.0273 8.81624 14.812 9.84577 15.3274 11.0138C15.7117 11.8918 15.9347 12.8317 15.9856 13.7887C16.0096 14.491 15.9856 15.1898 15.9856 15.8921H11.8718V14.4944C11.8966 13.9983 11.8678 13.501 11.7861 13.011C11.5865 12.0783 11.0494 11.252 10.2778 10.6907C9.50613 10.1293 8.55426 9.87239 7.60472 9.96918C6.65518 10.066 5.77482 10.5097 5.13249 11.2152C4.49017 11.9207 4.13109 12.8383 4.12414 13.7921V15.8921H0.0103368C0.0274776 14.8644 -0.0547967 13.8126 0.140609 12.7918C0.481232 10.9065 1.48566 9.20528 2.97227 7.99568C2.09114 7.28088 1.37203 6.38715 0.862587 5.37369C0.353141 4.36024 0.0649819 3.25018 0.0171946 2.11705C5.37671e-05 1.44903 0.0171946 0.781002 0.0171946 0.116402L0.003479 0.126679ZM78.5085 4.15539C77.6445 4.26924 76.844 4.67037 76.236 5.29419C75.6279 5.918 75.2476 6.72818 75.1564 7.59424C75.0652 8.4603 75.2684 9.33183 75.7332 10.0685C76.198 10.8051 76.8974 11.364 77.7187 11.655C78.5401 11.9461 79.4355 11.9525 80.2609 11.673C81.0863 11.3936 81.7935 10.8448 82.2687 10.1148C82.744 9.38482 82.9595 8.51624 82.8806 7.64898C82.8017 6.78171 82.433 5.96623 81.8338 5.33386C81.4115 4.88972 80.8902 4.5515 80.3123 4.34672C79.7345 4.14194 79.1165 4.07639 78.5085 4.15539ZM77.7029 0.106125C78.7787 -0.0706435 79.8793 -0.0258436 80.9371 0.23777C81.9949 0.501383 82.9877 0.978246 83.8545 1.6391C84.7213 2.29995 85.4437 3.13085 85.9776 4.08079C86.5114 5.03073 86.8454 6.07967 86.9589 7.16322C86.9977 7.56738 87.0126 7.97346 87.0035 8.37937C87.0035 10.8916 87.0035 13.3947 87.0035 15.8887H82.9411V15.4776C83.8467 14.925 84.5895 14.1425 85.094 13.2097C83.9776 14.5225 82.4656 15.4383 80.7845 15.82C79.1034 16.2017 77.3438 16.0287 75.7694 15.3268C74.5148 14.7657 73.4257 13.8917 72.6065 12.7888C71.7873 11.6858 71.2656 10.391 71.0915 9.02854C70.9173 7.66609 71.0965 6.28177 71.6119 5.00847C72.1273 3.73517 72.9616 2.61564 74.0347 1.75735C75.0952 0.905328 76.3572 0.340236 77.6994 0.116402L77.7029 0.106125ZM42.9241 0.136956C43.8707 -0.0882917 44.8618 -0.0419765 45.7832 0.270566C46.8594 0.661996 47.8144 1.32811 48.5532 2.2027C49.4391 3.24516 50.1353 4.43479 50.6101 5.71755C51.2121 7.29114 51.623 8.93126 51.8339 10.6027C52.0361 12.3571 52.122 14.1229 52.091 15.8887H47.9772C48.0173 13.9398 47.8877 11.9912 47.5898 10.0649C47.3755 8.83513 46.9986 7.63934 46.4688 6.5089C46.208 5.95578 45.8748 5.43969 45.4781 4.97415C45.2155 4.6598 44.8785 4.41604 44.4976 4.26502C44.2049 4.16525 43.8852 4.17994 43.6029 4.30613C43.089 4.57518 42.6559 4.97599 42.3482 5.46746C41.6984 6.47184 41.2178 7.57588 40.9255 8.73565C40.2879 11.0686 40.2399 13.5043 40.2399 15.9024H36.1261C36.1009 14.1593 36.189 12.4165 36.39 10.6849C36.6009 8.93816 37.0293 7.22456 37.6653 5.58394C38.1728 4.24391 38.9275 3.01098 39.8902 1.94919C40.6986 1.06331 41.7464 0.430314 42.907 0.126679L42.9241 0.136956ZM25.0977 4.15196C24.1894 4.26769 23.3513 4.70033 22.7312 5.37352C22.1111 6.0467 21.7489 6.91714 21.7086 7.83121C21.6682 8.74528 21.9524 9.6442 22.5107 10.3693C23.0691 11.0944 23.8659 11.5991 24.7604 11.7943C25.655 11.9894 26.5897 11.8625 27.3997 11.436C28.2097 11.0094 28.8429 10.3106 29.1875 9.46293C29.5321 8.61524 29.5659 7.67316 29.283 6.80297C29.0001 5.93278 28.4187 5.19042 27.6414 4.70694C26.883 4.23395 25.9842 4.03786 25.0977 4.15196ZM24.628 0.0410345C25.7465 -0.0929736 26.8807 0.0103485 27.9565 0.34424C29.0324 0.678131 30.0256 1.23508 30.8713 1.97871C31.7171 2.72234 32.3963 3.63591 32.8646 4.65975C33.333 5.68358 33.5799 6.79463 33.5892 7.92032V15.8921H29.5166C29.5166 15.7516 29.5166 15.6112 29.5166 15.4707C30.4358 14.9179 31.1834 14.1209 31.6763 13.1686C30.8334 14.1589 29.7615 14.9287 28.5535 15.4114C27.3455 15.894 26.038 16.0749 24.7442 15.9384C23.4505 15.8018 22.2096 15.352 21.1291 14.6278C20.0487 13.9037 19.1614 12.9271 18.544 11.7827C17.9267 10.6383 17.5981 9.36077 17.5866 8.06077C17.5751 6.76078 17.8812 5.47761 18.4782 4.32254C19.0752 3.16747 19.9451 2.17537 21.0126 1.43226C22.0801 0.689163 23.3129 0.217499 24.604 0.0581697L24.628 0.0410345Z" fill="#303030"/>
</g>
<defs>
<clipPath id="clip0_118_10243">
<rect width="87" height="21" fill="white"/>
</clipPath>
</defs>
</svg>
