<svg width="56" height="16" viewBox="0 0 56 16" fill="none" xmlns="http://www.w3.org/2000/svg">
<g clip-path="url(#clip0_118_10245)">
<path fill-rule="evenodd" clip-rule="evenodd" d="M15.0902 3.01592e-07V0.00692243C15.0833 0.00692243 12.9028 2.64058e-07 12.3214 2.08356C11.7884 3.99407 10.2863 9.26873 10.2447 9.41409H9.82942C9.82942 9.41409 8.29271 4.02176 7.75278 2.07664C7.17132 -0.00692189 4.98393 3.01592e-07 4.98393 3.01592e-07H0V15.8517H4.98393V6.43758H5.19159H5.39926L8.30655 15.8517H11.7676L14.6749 6.4445H15.0902V15.8517H20.0742V3.01592e-07H15.0902Z" fill="#303030"/>
<path fill-rule="evenodd" clip-rule="evenodd" d="M33.2954 0C33.2954 0 31.8348 0.13152 31.1495 1.66131L27.6192 9.41409H27.2039V0H22.22V15.8517H26.927C26.927 15.8517 28.4568 15.7132 29.1421 14.1904L32.6032 6.43758H33.0185V15.8517H38.0024V0H33.2954Z" fill="#303030"/>
<path fill-rule="evenodd" clip-rule="evenodd" d="M40.2175 7.19897V15.8516H45.2015V10.7985H50.6007C52.9542 10.7985 54.9478 9.29638 55.6885 7.19897H40.2175Z" fill="#303030"/>
<path fill-rule="evenodd" clip-rule="evenodd" d="M50.6008 0H39.5184C40.0722 3.01805 42.3357 5.44079 45.2638 6.22991C45.9283 6.40989 46.6275 6.5068 47.3474 6.5068H55.8893C55.9654 6.14685 56 5.77997 56 5.39926C56 2.41582 53.5842 0 50.6008 0Z" fill="url(#paint0_linear_118_10245)"/>
</g>
<defs>
<linearGradient id="paint0_linear_118_10245" x1="39.5198" y1="3.2534" x2="56" y2="3.2534" gradientUnits="userSpaceOnUse">
<stop offset="0.364583" stop-color="#8A8A8A"/>
<stop offset="1" stop-color="#303030"/>
</linearGradient>
<clipPath id="clip0_118_10245">
<rect width="56" height="15.8517" fill="white"/>
</clipPath>
</defs>
</svg>
